# xmcd
#
# Track frame offsets:
#	150
#	19563
#	33146
#	51124
#	69966
#	89574
#	108012
#	121692
#	139308
#	157067
#	179782
#	195963
#	210302
#	230827
#	250972
#
# Disc length: 3586 seconds
#
# Revision: 2
# Processed by: cddbd v1.5.2PL0 Copyright (c) Steve Scherf et al.
# Submitted via: audiograbber 1.83.01
#
DISCID=c60e000f
DTITLE=Bosshoss - Low Voltage
DYEAR=2010
DGENRE=Rock
TTITLE0=Stallion Battalion
TTITLE1=Have Love Will Travel
TTITLE2=Rodeo Queen
TTITLE3=Shake and Shout
TTITLE4=Go! Go! Go!
TTITLE5=Rodeo Radio
TTITLE6=Close
TTITLE7=I Say A Little Prayer
TTITLE8=Break Free
TTITLE9=Mary Marry Me
TTITLE10=Gay Bar
TTITLE11=Remedy
TTITLE12=Sugarman
TTITLE13=No One Knows
TTITLE14=Last Day
EXTD=
EXTT0=
EXTT1=
EXTT2=
EXTT3=
EXTT4=
EXTT5=
EXTT6=
EXTT7=
EXTT8=
EXTT9=
EXTT10=
EXTT11=
EXTT12=
EXTT13=
EXTT14=
PLAYORDER=
